<svg width="10" height="6" viewBox="0 0 10 6" fill="none" xmlns="http://www.w3.org/2000/svg">
<path d="M9.70711 1.70711C10.0976 1.31658 10.0976 0.683417 9.70711 0.292893C9.31658 -0.0976311 8.68342 -0.0976311 8.29289 0.292893L9.70711 1.70711ZM1.70711 0.292893C1.31658 -0.0976311 0.683417 -0.0976311 0.292893 0.292893C-0.0976311 0.683417 -0.0976311 1.31658 0.292893 1.70711L1.70711 0.292893ZM8.29289 0.292893L4.64645 3.93934L6.06066 5.35355L9.70711 1.70711L8.29289 0.292893ZM5.35355 3.93934L1.70711 0.292893L0.292893 1.70711L3.93934 5.35355L5.35355 3.93934ZM4.64645 3.93934C4.84171 3.74408 5.15829 3.74408 5.35355 3.93934L3.93934 5.35355C4.52513 5.93934 5.47487 5.93934 6.06066 5.35355L4.64645 3.93934Z" fill="#9A9CB5"/>
</svg>
